# xmcd
#
# Track frame offsets:
#	182
#	13537
#	25475
#	39450
#	52997
#	67132
#	80787
#	94665
#	107635
#	120162
#	131177
#	142517
#	155070
#	169762
#	182035
#	192000
#	204702
#
# Disc length: 2868 seconds
#
# Revision: 4
# Processed by: cddbd v1.5.2PL0 Copyright (c) Steve Scherf et al.
# Submitted via: audiograbber 1.83.01
#
DISCID=e50b3211
DTITLE=King, B. B. - 16 greatest hits
DYEAR=1988
DGENRE=Blues
TTITLE0=When my heart beats like a hammer
TTITLE1=Dark is the night - Part 1
TTITLE2=Blind love
TTITLE3=Three o'clock blues
TTITLE4=Whole lotta love
TTITLE5=Woke up this morning (my baby's gone)
TTITLE6=You know I love you
TTITLE7=The woman I love
TTITLE8=I gotta find my baby
TTITLE9=Lets do the boogie
TTITLE10=Bye bye baby
TTITLE11=Boogie woogie woman
TTITLE12=Past day
TTITLE13=Dark is the night - Part 2
TTITLE14=Jump with you baby
TTITLE15=Ten long years
TTITLE16=That ain't the way to do it
EXTD=
EXTT0=
EXTT1=
EXTT2=
EXTT3=
EXTT4=
EXTT5=
EXTT6=
EXTT7=
EXTT8=
EXTT9=
EXTT10=
EXTT11=
EXTT12=
EXTT13=
EXTT14=
EXTT15=
EXTT16=
PLAYORDER=
